<?xml version="1.0" encoding="UTF-8" standalone="no"?>
<!-- Created with Inkscape (http://www.inkscape.org/) -->

<svg
   xmlns:dc="http://purl.org/dc/elements/1.1/"
   xmlns:cc="http://creativecommons.org/ns#"
   xmlns:rdf="http://www.w3.org/1999/02/22-rdf-syntax-ns#"
   xmlns:svg="http://www.w3.org/2000/svg"
   xmlns="http://www.w3.org/2000/svg"
   xmlns:sodipodi="http://sodipodi.sourceforge.net/DTD/sodipodi-0.dtd"
   xmlns:inkscape="http://www.inkscape.org/namespaces/inkscape"
   width="226.06845"
   height="160.84261"
   id="svg2"
   version="1.1"
   inkscape:version="0.48.4 r9939"
   sodipodi:docname="gems.svg">
  <defs
     id="defs4" />
  <sodipodi:namedview
     id="base"
     pagecolor="#ffffff"
     bordercolor="#666666"
     borderopacity="1.0"
     inkscape:pageopacity="0.0"
     inkscape:pageshadow="2"
     inkscape:zoom="3.5"
     inkscape:cx="107.19489"
     inkscape:cy="82.740098"
     inkscape:document-units="px"
     inkscape:current-layer="layer1"
     showgrid="false"
     showguides="true"
     inkscape:guide-bbox="true"
     inkscape:window-width="1920"
     inkscape:window-height="1013"
     inkscape:window-x="0"
     inkscape:window-y="37"
     inkscape:window-maximized="1"
     inkscape:showpageshadow="false"
     fit-margin-top="0"
     fit-margin-left="0"
     fit-margin-right="0"
     fit-margin-bottom="0" />
  <metadata
     id="metadata7">
    <rdf:RDF>
      <cc:Work
         rdf:about="">
        <dc:format>image/svg+xml</dc:format>
        <dc:type
           rdf:resource="http://purl.org/dc/dcmitype/StillImage" />
        <dc:title></dc:title>
      </cc:Work>
    </rdf:RDF>
  </metadata>
  <g
     inkscape:label="Layer 1"
     inkscape:groupmode="layer"
     id="layer1"
     transform="translate(-36.832916,-283.58408)">
    <rect
       style="fill:#0088aa;fill-opacity:1;stroke:none"
       id="rect3973"
       width="226.06845"
       height="160.84261"
       x="487.69006"
       y="296.15552" />
    <g
       id="g4315"
       inkscape:export-filename="gem1.png"
       inkscape:export-xdpi="90"
       inkscape:export-ydpi="90">
      <path
         id="path4128"
         d="m 60.547032,303.94591 c -1.744131,1.23006 -3.246926,2.67511 -4.572882,4.22932 l 2.400234,4.28478 c 0.746352,-1.02169 1.569301,-1.97923 2.515875,-2.87422 0.142368,0.5073 0.313041,1.03278 0.54022,1.57964 0.573057,1.37953 1.249849,2.54831 1.978008,3.4827 0.776513,0.91442 1.63113,1.67383 2.630172,2.30543 1.013665,0.53046 2.179507,0.96851 3.44941,1.29727 1.269906,0.32884 2.756588,0.63145 4.44682,0.88076 2.259998,0.3933 4.332925,0.8554 6.206317,1.40921 1.839669,0.47275 3.528374,1.22484 5.101674,2.28392 1.621593,1.03908 3.131225,2.51318 4.539264,4.40211 1.223647,1.60969 2.423661,3.69899 3.5469,6.24968 -0.534985,1.08068 -1.197455,2.10598 -1.93565,3.08669 l 2.263076,4.42933 c 7.53652,-8.48398 8.55926,-21.3596 1.744372,-31.0225 -7.945573,-11.26612 -23.587686,-13.96971 -34.85381,-6.02412 z m 14.709329,3.1593 c 0.08058,0.28714 0.197833,0.56012 0.326419,0.86966 0.324364,0.78083 0.702588,1.45854 1.11473,1.98742 0.439519,0.51757 0.921395,0.9371 1.486868,1.29458 0.57374,0.30024 1.230319,0.5434 1.949096,0.72949 0.71879,0.18613 1.561544,0.37826 2.518229,0.51937 1.279192,0.22262 2.451239,0.46174 3.511602,0.7752 1.041271,0.26759 1.995485,0.71261 2.885995,1.31206 0.917838,0.58813 1.773014,1.42219 2.569997,2.49134 0.692619,0.91109 1.364767,2.07091 2.000531,3.51463 -0.716128,1.4466 -1.75239,2.76699 -3.075929,3.84305 -0.08676,-0.44674 -0.219021,-0.91784 -0.427604,-1.41996 -0.648711,-1.5616 -1.545344,-2.62514 -2.66547,-3.23696 -1.120134,-0.61177 -2.769441,-1.13957 -4.94233,-1.58334 -1.049555,-0.21025 -2.058553,-0.43495 -3.053406,-0.66796 -0.986565,-0.29027 -1.905657,-0.73968 -2.777077,-1.29324 -0.871416,-0.55353 -1.712578,-1.2887 -2.49873,-2.25468 -0.6026,-0.74044 -1.165281,-1.69754 -1.700333,-2.81775 0.607111,-1.52191 1.531978,-2.88534 2.777412,-4.06291 z"
         style="fill:#ffec69;fill-opacity:1;stroke:none"
         inkscape:connector-curvature="0" />
      <path
         id="path4126"
         d="m 55.100451,309.17398 c -6.464048,8.45447 -7.025843,20.48262 -0.577535,29.62573 7.945573,11.26612 23.587691,13.9697 34.85381,6.02412 1.221605,-0.86155 2.333987,-1.81482 3.351587,-2.84196 l -2.195508,-4.33353 c -0.801277,0.92616 -1.6864,1.80138 -2.664124,2.59622 -0.153291,-0.78928 -0.402316,-1.62974 -0.770832,-2.51688 -1.146108,-2.75893 -2.693072,-4.66216 -4.672051,-5.74308 -1.979,-1.08085 -4.907777,-1.98969 -8.746733,-2.77372 -1.854301,-0.37146 -3.641193,-0.80187 -5.398844,-1.21356 -1.74302,-0.51282 -3.376192,-1.24574 -4.915772,-2.22375 -1.53957,-0.97793 -3.020903,-2.30854 -4.40984,-4.01518 -1.06468,-1.30817 -2.068743,-2.97263 -3.014076,-4.95174 0.438398,-1.09898 1.006088,-2.15512 1.640833,-3.16568 l -2.480915,-4.46699 z m 3.676325,15.72254 c 0.08058,0.28714 0.165896,0.58265 0.294482,0.89219 0.324364,0.78082 0.702589,1.45854 1.11473,1.98742 0.439519,0.51757 0.921396,0.9371 1.486868,1.29458 0.57374,0.30024 1.230319,0.5434 1.949096,0.72948 0.71879,0.18614 1.561545,0.37826 2.518229,0.51938 1.279193,0.22261 2.451239,0.46174 3.511602,0.7752 1.041272,0.26758 2.018007,0.74454 2.908517,1.34399 0.91784,0.58813 1.750492,1.39026 2.547476,2.4594 0.692618,0.9111 1.38729,2.10284 2.023054,3.54656 -0.71613,1.4466 -1.774914,2.73507 -3.098453,3.81113 -0.08676,-0.44674 -0.21902,-0.91784 -0.427605,-1.41997 -0.64871,-1.56159 -1.513407,-2.64767 -2.633533,-3.25947 -1.120134,-0.61177 -2.801377,-1.11707 -4.974266,-1.56083 -1.049554,-0.21024 -2.058554,-0.43494 -3.053405,-0.66797 -0.986566,-0.29026 -1.883136,-0.70773 -2.754554,-1.26129 -0.871417,-0.55354 -1.735101,-1.32063 -2.521254,-2.28661 -0.602601,-0.74046 -1.165281,-1.69754 -1.700334,-2.81775 0.607112,-1.52192 1.563915,-2.90787 2.80935,-4.08544 z"
         style="fill:#ffb237;fill-opacity:1;stroke:none"
         inkscape:connector-curvature="0" />
    </g>
    <g
       id="g4304"
       inkscape:export-filename="gem2.png"
       inkscape:export-xdpi="90"
       inkscape:export-ydpi="90">
      <path
         id="path4061"
         d="m 129.5625,299.37869 0,9.72656 28.55469,0 0,-9.72656 -28.55469,0 z"
         style="fill:#9d0000;fill-opacity:1;stroke:none"
         inkscape:connector-curvature="0" />
      <path
         id="path4059"
         d="m 128.3125,299.45681 -9.53125,9.53125 0,0.11713 9.53125,0 0,-9.64844 z"
         style="fill:#720000;fill-opacity:1;stroke:none"
         inkscape:connector-curvature="0" />
      <path
         id="path4057"
         d="m 159.36719,299.53494 0,9.57031 9.41406,0 0,-0.15625 -9.41406,-9.41406 z"
         style="fill:#720000;fill-opacity:1;stroke:none"
         inkscape:connector-curvature="0" />
      <path
         id="path4055"
         d="m 118.78125,310.35525 0,28.35937 9.53125,0 0,-28.35937 -9.53125,0 z"
         style="fill:#9d0000;fill-opacity:1;stroke:none"
         inkscape:connector-curvature="0" />
      <path
         id="path4053"
         d="m 129.5625,310.35525 0,28.35937 28.55469,0 0,-28.35937 -28.55469,0 z"
         style="fill:#db0000;fill-opacity:1;stroke:none"
         inkscape:connector-curvature="0" />
      <path
         id="path4051"
         d="m 159.36719,310.35525 0,28.35937 9.41406,0 0,-28.35937 -9.41406,0 z"
         style="fill:#9d0000;fill-opacity:1;stroke:none"
         inkscape:connector-curvature="0" />
      <path
         id="path4049"
         d="m 118.97656,339.96462 9.33594,9.33594 0,-9.33594 -9.33594,0 z"
         style="fill:#720000;fill-opacity:1;stroke:none"
         inkscape:connector-curvature="0" />
      <path
         id="path4047"
         d="m 129.5625,339.96462 0,9.41407 28.55469,0 0,-9.41407 -28.55469,0 z"
         style="fill:#9d0000;fill-opacity:1;stroke:none"
         inkscape:connector-curvature="0" />
      <path
         id="rect2987"
         d="m 159.36719,339.96462 0,9.41407 9.41406,-9.41407 -9.41406,0 z"
         style="fill:#720000;fill-opacity:1;stroke:none"
         inkscape:connector-curvature="0" />
    </g>
    <g
       id="g4388"
       inkscape:export-filename="gem3.png"
       inkscape:export-xdpi="90"
       inkscape:export-ydpi="90">
      <path
         id="path4067"
         d="m 216.44921,301.52609 c -3.10256,2.04037 -13.08428,18.36403 -14.13469,20.2036 -1.01097,1.77049 -9.35366,17.40474 -10.14096,21.88724 l 20.55599,-11.86375 1.87941,-3.32811 1.84025,-3.1715 0,-23.72748 z"
         style="fill:#f3f5ef;fill-opacity:1;stroke:none"
         inkscape:connector-curvature="0" />
      <path
         id="path4065"
         d="m 217.70215,301.6827 0,23.57087 1.84025,3.1715 1.8794,3.32811 20.75176,11.98121 c -0.41814,-3.96314 -9.3205,-20.35333 -10.37588,-22.16132 -1.04845,-1.79614 -10.78566,-17.41762 -14.09553,-19.89037 z"
         style="fill:#fcfcf9;fill-opacity:1;stroke:none"
         inkscape:connector-curvature="0" />
      <path
         id="path2991"
         d="m 213.66926,332.69288 -21.18246,12.21614 c 2.71139,1.75131 22.54456,2.28126 24.70634,2.27094 2.09957,-0.01 20.84552,-0.68431 24.39311,-2.34925 l -21.02584,-12.13783 -3.48473,0 -3.40642,0 z"
         style="fill:#dbdfd5;fill-opacity:1;stroke:none"
         inkscape:connector-curvature="0" />
    </g>
    <g
       id="g4358"
       inkscape:export-filename="gem4.png"
       inkscape:export-xdpi="90"
       inkscape:export-ydpi="90">
      <path
         id="path4077"
         d="m 73.568873,375.2494 c -1.795409,-0.01 -6.565967,10.32755 -8.630489,13.08241 l 8.513333,12.22327 8.552386,-12.26232 c -2.073887,-2.93855 -6.663735,-13.03315 -8.43523,-13.04336 z"
         style="fill:#ff812d;fill-opacity:1;stroke:none"
         inkscape:connector-curvature="0" />
      <path
         id="path4075"
         d="m 63.962085,389.1519 c -2.825948,1.099 -14.881972,2.34191 -15.464588,4.10046 -0.582615,1.75855 8.347496,9.96679 9.958257,12.53569 l 13.824404,-4.64719 -8.318073,-11.98896 z"
         style="fill:#ea5e00;fill-opacity:1;stroke:none"
         inkscape:connector-curvature="0" />
      <path
         id="path4073"
         d="m 82.902298,389.19096 -8.435229,12.10611 13.94156,4.56908 c 1.750041,-2.6215 10.593848,-10.55133 10.036361,-12.30137 -0.573046,-1.79888 -13.042456,-3.23074 -15.542692,-4.37382 z"
         style="fill:#a94400;fill-opacity:1;stroke:none"
         inkscape:connector-curvature="0" />
      <path
         id="path4071"
         d="m 72.748782,402.27337 -14.019664,4.68624 c 0.04214,3.36371 -2.31493,14.62834 -0.859144,15.6989 1.475862,1.08533 11.805426,-4.70255 14.878808,-5.54538 l 0,-14.83976 z"
         style="fill:#a94400;fill-opacity:1;stroke:none"
         inkscape:connector-curvature="0" />
      <path
         id="path2993"
         d="m 73.998445,402.46863 0,14.68355 c 3.150765,0.94926 13.246031,6.76143 14.7226,5.70159 1.477127,-1.06024 -0.774492,-12.49308 -0.663884,-15.777 l -14.058716,-4.60814 z"
         style="fill:#ea5e00;fill-opacity:1;stroke:none"
         inkscape:connector-curvature="0" />
    </g>
    <g
       id="g4374"
       inkscape:export-filename="gem5.png"
       inkscape:export-xdpi="90"
       inkscape:export-ydpi="90">
      <path
         id="path4095"
         d="m 146.75937,375.98919 0.19531,0.19531 24.37497,24.37497 0.15625,0.15625 c -0.5264,-3.28648 -5.58817,-15.71564 -7.10937,-17.2656 -1.60837,-1.63879 -15.32107,-7.43942 -17.61716,-7.46093 z"
         style="fill:#008103;fill-opacity:1;stroke:none"
         inkscape:connector-curvature="0" />
      <path
         id="path4093"
         d="m 146.21249,376.02825 c -3.41528,0.60009 -15.65112,5.60152 -17.18748,7.10937 -1.63208,1.60178 -7.43139,15.19878 -7.49999,17.5781 l 0.19532,-0.19531 24.3359,-24.33591 0.15625,-0.15625 z"
         style="fill:#008103;fill-opacity:1;stroke:none"
         inkscape:connector-curvature="0" />
      <path
         id="path4091"
         d="m 146.52499,377.51263 -10.97655,10.97654 21.9531,0 -10.97655,-10.97654 z"
         style="fill:#00bc0e;fill-opacity:1;stroke:none"
         inkscape:connector-curvature="0" />
      <path
         id="path4089"
         d="m 135.27501,389.73917 0,22.49997 22.49997,0 0,-22.49997 -22.49997,0 z"
         style="fill:#0aff3f;fill-opacity:1;stroke:none"
         inkscape:connector-curvature="0" />
      <path
         id="path4087"
         d="m 134.02501,390.01261 -10.97655,10.97655 10.97655,10.97655 0,-21.9531 z"
         style="fill:#00bc0e;fill-opacity:1;stroke:none"
         inkscape:connector-curvature="0" />
      <path
         id="path4085"
         d="m 159.02498,390.01261 0,21.9531 10.97654,-10.97655 -10.97654,-10.97655 z"
         style="fill:#00bc0e;fill-opacity:1;stroke:none"
         inkscape:connector-curvature="0" />
      <path
         id="path4083"
         d="m 171.52496,401.2626 -0.19531,0.19531 -24.33591,24.3359 -0.11712,0.11713 c 3.4585,-0.62499 15.61675,-5.60613 17.14841,-7.10937 1.63162,-1.60133 7.42819,-15.15405 7.49999,-17.53904 z"
         style="fill:#008103;fill-opacity:1;stroke:none"
         inkscape:connector-curvature="0" />
      <path
         id="path4081"
         d="m 121.60315,401.30166 c 0.60009,3.41528 5.56245,15.65112 7.0703,17.18748 1.60837,1.63878 15.32107,7.47847 17.61717,7.49999 l -0.19532,-0.19532 -24.37496,-24.37497 -0.11719,-0.11718 z"
         style="fill:#008103;fill-opacity:1;stroke:none"
         inkscape:connector-curvature="0" />
      <path
         id="path3000"
         d="m 135.54844,413.48914 10.97655,10.97655 10.97655,-10.97655 -21.9531,0 z"
         style="fill:#00bc0e;fill-opacity:1;stroke:none"
         inkscape:connector-curvature="0" />
    </g>
    <g
       id="g4319"
       inkscape:export-filename="gem6.png"
       inkscape:export-xdpi="90"
       inkscape:export-ydpi="90">
      <path
         id="path4105"
         d="m 215.64772,375.00042 c -4.00295,0.0503 -7.38319,0.26764 -8.36562,0.58638 -2.25028,0.73009 -10.01584,8.08694 -12.1966,11.2584 l 12.1966,11.61023 24.8623,0 11.88387,-11.25841 c -0.0271,-0.0558 -0.0467,-0.10908 -0.0782,-0.15636 -0.0807,-0.12097 -0.2133,-0.23775 -0.35183,-0.35183 -0.0131,-0.0185 -0.0256,-0.0595 -0.039,-0.0782 -0.0113,-0.009 -0.0279,-0.0307 -0.039,-0.039 -2.50095,-3.46848 -9.18114,-10.07205 -11.25841,-10.7893 -1.6121,-0.55663 -9.94237,-0.86572 -16.61396,-0.78183 z m 3.59643,7.46651 c 7.1061,0 12.90025,1.83462 12.90025,4.10463 0,2.27 -5.79415,4.10462 -12.90025,4.10462 -7.1061,0 -12.86116,-1.83462 -12.86116,-4.10462 0,-2.27001 5.75506,-4.10463 12.86116,-4.10463 z"
         style="fill:#88cdff;fill-opacity:1;stroke:none"
         inkscape:connector-curvature="0" />
      <path
         id="path4101"
         d="m 194.46003,388.01795 c -0.004,0.01 1.9e-4,0.0301 0,0.039 -6.5e-4,0.0278 0.0349,0.0463 0.039,0.0782 -0.53031,6.41371 17.34039,33.29208 24.00229,36.08161 l -12.27479,-25.05776 -0.039,-0.0782 -11.7275,-11.06294 z"
         style="fill:#0075cb;fill-opacity:1;stroke:none"
         inkscape:connector-curvature="0" />
      <path
         id="path4099"
         d="m 244.45828,388.48705 -11.64932,11.06294 -0.039,0.039 0,0.039 0,0.0782 -0.039,0 -12.00114,24.39321 c 6.36865,-3.10269 21.96209,-26.65808 23.37682,-34.79159 0.20457,-0.33051 0.32272,-0.62519 0.35183,-0.82093 z"
         style="fill:#0075cb;fill-opacity:1;stroke:none"
         inkscape:connector-curvature="0" />
      <path
         id="path3002"
         d="m 207.90757,399.70636 11.68841,23.88501 11.76659,-23.88501 -23.455,0 z"
         style="fill:#45b1ff;fill-opacity:1;stroke:none"
         inkscape:connector-curvature="0" />
    </g>
  </g>
</svg>
